<mxfile host="app.diagrams.net" agent="Mozilla/5.0 (Windows NT 6.1; Win64; x64; rv:109.0) Gecko/20100101 Firefox/115.0" version="24.7.6">
  <diagram name="Page-1" id="I4vcWaHDYuO8gUXg-Lpq">
    <mxGraphModel dx="887" dy="619" grid="1" gridSize="10" guides="1" tooltips="1" connect="1" arrows="1" fold="1" page="1" pageScale="1" pageWidth="850" pageHeight="1100" math="0" shadow="0">
      <root>
        <mxCell id="0" />
        <mxCell id="1" parent="0" />
        <mxCell id="GnZBs1aFPUhDdBQKn84E-1" value="" style="verticalLabelPosition=bottom;shadow=0;dashed=0;align=center;html=1;verticalAlign=top;shape=mxgraph.electrical.transistors.pmos;pointerEvents=1;strokeWidth=2;" vertex="1" parent="1">
          <mxGeometry x="420" y="110" width="60" height="100" as="geometry" />
        </mxCell>
        <mxCell id="GnZBs1aFPUhDdBQKn84E-2" value="" style="verticalLabelPosition=bottom;shadow=0;dashed=0;align=center;html=1;verticalAlign=top;shape=mxgraph.electrical.transistors.pmos;pointerEvents=1;flipH=1;strokeWidth=2;" vertex="1" parent="1">
          <mxGeometry x="480" y="229" width="60" height="100" as="geometry" />
        </mxCell>
        <mxCell id="GnZBs1aFPUhDdBQKn84E-7" value="" style="endArrow=none;html=1;rounded=0;strokeWidth=2;" edge="1" parent="1">
          <mxGeometry width="50" height="50" relative="1" as="geometry">
            <mxPoint x="250" y="130" as="sourcePoint" />
            <mxPoint x="312" y="130" as="targetPoint" />
          </mxGeometry>
        </mxCell>
        <mxCell id="GnZBs1aFPUhDdBQKn84E-8" value="" style="endArrow=none;html=1;rounded=0;strokeWidth=2;" edge="1" parent="1">
          <mxGeometry width="50" height="50" relative="1" as="geometry">
            <mxPoint x="280" y="190" as="sourcePoint" />
            <mxPoint x="320" y="190" as="targetPoint" />
          </mxGeometry>
        </mxCell>
        <mxCell id="GnZBs1aFPUhDdBQKn84E-9" value="" style="pointerEvents=1;verticalLabelPosition=bottom;shadow=0;dashed=0;align=center;html=1;verticalAlign=top;shape=mxgraph.electrical.resistors.resistor_2;direction=south;strokeWidth=2;" vertex="1" parent="1">
          <mxGeometry x="470" y="372" width="20" height="100" as="geometry" />
        </mxCell>
        <mxCell id="GnZBs1aFPUhDdBQKn84E-10" value="" style="endArrow=none;html=1;rounded=0;exitX=0;exitY=0.5;exitDx=0;exitDy=0;exitPerimeter=0;strokeWidth=2;" edge="1" parent="1" source="GnZBs1aFPUhDdBQKn84E-9">
          <mxGeometry width="50" height="50" relative="1" as="geometry">
            <mxPoint x="480" y="450" as="sourcePoint" />
            <mxPoint x="480" y="320" as="targetPoint" />
          </mxGeometry>
        </mxCell>
        <mxCell id="GnZBs1aFPUhDdBQKn84E-11" value="" style="endArrow=none;html=1;rounded=0;exitX=1;exitY=0;exitDx=0;exitDy=0;exitPerimeter=0;entryX=1;entryY=1;entryDx=0;entryDy=0;entryPerimeter=0;strokeWidth=2;" edge="1" parent="1" source="GnZBs1aFPUhDdBQKn84E-2" target="GnZBs1aFPUhDdBQKn84E-1">
          <mxGeometry width="50" height="50" relative="1" as="geometry">
            <mxPoint x="430" y="260" as="sourcePoint" />
            <mxPoint x="480" y="210" as="targetPoint" />
          </mxGeometry>
        </mxCell>
        <mxCell id="GnZBs1aFPUhDdBQKn84E-12" value="" style="endArrow=none;html=1;rounded=0;strokeWidth=2;" edge="1" parent="1">
          <mxGeometry width="50" height="50" relative="1" as="geometry">
            <mxPoint x="280" y="360" as="sourcePoint" />
            <mxPoint x="280" y="190" as="targetPoint" />
          </mxGeometry>
        </mxCell>
        <mxCell id="GnZBs1aFPUhDdBQKn84E-13" value="" style="endArrow=none;html=1;rounded=0;strokeWidth=2;" edge="1" parent="1" target="GnZBs1aFPUhDdBQKn84E-14">
          <mxGeometry width="50" height="50" relative="1" as="geometry">
            <mxPoint x="280" y="360" as="sourcePoint" />
            <mxPoint x="480" y="360" as="targetPoint" />
          </mxGeometry>
        </mxCell>
        <mxCell id="GnZBs1aFPUhDdBQKn84E-14" value="" style="shape=waypoint;sketch=0;fillStyle=solid;size=6;pointerEvents=1;points=[];fillColor=none;resizable=0;rotatable=0;perimeter=centerPerimeter;snapToPoint=1;strokeWidth=2;" vertex="1" parent="1">
          <mxGeometry x="470" y="350.0000000000001" width="20" height="20" as="geometry" />
        </mxCell>
        <mxCell id="GnZBs1aFPUhDdBQKn84E-15" value="" style="endArrow=none;html=1;rounded=0;strokeWidth=2;" edge="1" parent="1">
          <mxGeometry width="50" height="50" relative="1" as="geometry">
            <mxPoint x="410" y="160" as="sourcePoint" />
            <mxPoint x="840" y="160" as="targetPoint" />
          </mxGeometry>
        </mxCell>
        <mxCell id="GnZBs1aFPUhDdBQKn84E-16" value="" style="endArrow=none;html=1;rounded=0;strokeWidth=2;" edge="1" parent="1">
          <mxGeometry width="50" height="50" relative="1" as="geometry">
            <mxPoint x="480" y="120" as="sourcePoint" />
            <mxPoint x="480" y="80" as="targetPoint" />
          </mxGeometry>
        </mxCell>
        <mxCell id="GnZBs1aFPUhDdBQKn84E-17" value="" style="verticalLabelPosition=bottom;shadow=0;dashed=0;align=center;html=1;verticalAlign=top;shape=mxgraph.electrical.transistors.pmos;pointerEvents=1;strokeWidth=2;fillColor=#f8cecc;strokeColor=#b85450;" vertex="1" parent="1">
          <mxGeometry x="580" y="110" width="60" height="100" as="geometry" />
        </mxCell>
        <mxCell id="GnZBs1aFPUhDdBQKn84E-18" value="" style="endArrow=none;html=1;rounded=0;exitX=1;exitY=0;exitDx=0;exitDy=0;exitPerimeter=0;entryX=1;entryY=1;entryDx=0;entryDy=0;entryPerimeter=0;strokeWidth=2;fillColor=#f8cecc;strokeColor=#b85450;" edge="1" parent="1" target="GnZBs1aFPUhDdBQKn84E-17">
          <mxGeometry width="50" height="50" relative="1" as="geometry">
            <mxPoint x="640" y="232" as="sourcePoint" />
            <mxPoint x="640" y="210" as="targetPoint" />
          </mxGeometry>
        </mxCell>
        <mxCell id="GnZBs1aFPUhDdBQKn84E-19" value="" style="endArrow=none;html=1;rounded=0;entryX=0;entryY=0.5;entryDx=0;entryDy=0;entryPerimeter=0;strokeWidth=2;" edge="1" parent="1">
          <mxGeometry width="50" height="50" relative="1" as="geometry">
            <mxPoint x="570" y="160" as="sourcePoint" />
            <mxPoint x="582" y="160" as="targetPoint" />
          </mxGeometry>
        </mxCell>
        <mxCell id="GnZBs1aFPUhDdBQKn84E-20" value="" style="endArrow=none;html=1;rounded=0;strokeWidth=2;fillColor=#f8cecc;strokeColor=#b85450;" edge="1" parent="1">
          <mxGeometry width="50" height="50" relative="1" as="geometry">
            <mxPoint x="640" y="120" as="sourcePoint" />
            <mxPoint x="640" y="80" as="targetPoint" />
          </mxGeometry>
        </mxCell>
        <mxCell id="GnZBs1aFPUhDdBQKn84E-21" value="" style="verticalLabelPosition=bottom;shadow=0;dashed=0;align=center;html=1;verticalAlign=top;shape=mxgraph.electrical.transistors.nmos;pointerEvents=1;flipH=1;strokeWidth=2;fillColor=#f8cecc;strokeColor=#b85450;" vertex="1" parent="1">
          <mxGeometry x="640" y="360" width="60" height="100" as="geometry" />
        </mxCell>
        <mxCell id="GnZBs1aFPUhDdBQKn84E-22" value="" style="endArrow=none;html=1;rounded=0;exitX=1;exitY=0;exitDx=0;exitDy=0;exitPerimeter=0;strokeWidth=2;fillColor=#f8cecc;strokeColor=#b85450;" edge="1" parent="1" source="GnZBs1aFPUhDdBQKn84E-21">
          <mxGeometry width="50" height="50" relative="1" as="geometry">
            <mxPoint x="590" y="280" as="sourcePoint" />
            <mxPoint x="640" y="230" as="targetPoint" />
          </mxGeometry>
        </mxCell>
        <mxCell id="GnZBs1aFPUhDdBQKn84E-23" value="" style="verticalLabelPosition=bottom;shadow=0;dashed=0;align=center;html=1;verticalAlign=top;shape=mxgraph.electrical.transistors.nmos;pointerEvents=1;flipH=0;strokeWidth=2;" vertex="1" parent="1">
          <mxGeometry x="700" y="360" width="60" height="100" as="geometry" />
        </mxCell>
        <mxCell id="GnZBs1aFPUhDdBQKn84E-24" value="" style="endArrow=none;html=1;rounded=0;strokeWidth=2;fillColor=#f8cecc;strokeColor=#b85450;" edge="1" parent="1" source="GnZBs1aFPUhDdBQKn84E-26">
          <mxGeometry width="50" height="50" relative="1" as="geometry">
            <mxPoint x="640" y="340" as="sourcePoint" />
            <mxPoint x="700" y="340" as="targetPoint" />
          </mxGeometry>
        </mxCell>
        <mxCell id="GnZBs1aFPUhDdBQKn84E-25" value="" style="endArrow=none;html=1;rounded=0;exitX=0;exitY=0.5;exitDx=0;exitDy=0;exitPerimeter=0;strokeWidth=2;fillColor=#f8cecc;strokeColor=#b85450;" edge="1" parent="1" source="GnZBs1aFPUhDdBQKn84E-23">
          <mxGeometry width="50" height="50" relative="1" as="geometry">
            <mxPoint x="650" y="370" as="sourcePoint" />
            <mxPoint x="700" y="340" as="targetPoint" />
          </mxGeometry>
        </mxCell>
        <mxCell id="GnZBs1aFPUhDdBQKn84E-26" value="" style="shape=waypoint;sketch=0;fillStyle=solid;size=6;pointerEvents=1;points=[];fillColor=#f8cecc;resizable=0;rotatable=0;perimeter=centerPerimeter;snapToPoint=1;strokeWidth=2;strokeColor=#b85450;" vertex="1" parent="1">
          <mxGeometry x="630" y="330" width="20" height="20" as="geometry" />
        </mxCell>
        <mxCell id="GnZBs1aFPUhDdBQKn84E-27" value="" style="shape=waypoint;sketch=0;fillStyle=solid;size=6;pointerEvents=1;points=[];fillColor=#f8cecc;resizable=0;rotatable=0;perimeter=centerPerimeter;snapToPoint=1;strokeWidth=2;strokeColor=#b85450;" vertex="1" parent="1">
          <mxGeometry x="690" y="400" width="20" height="20" as="geometry" />
        </mxCell>
        <mxCell id="GnZBs1aFPUhDdBQKn84E-28" value="" style="verticalLabelPosition=bottom;shadow=0;dashed=0;align=center;html=1;verticalAlign=top;shape=mxgraph.electrical.transistors.pmos;pointerEvents=1;strokeWidth=2;" vertex="1" parent="1">
          <mxGeometry x="720" y="169" width="40" height="70" as="geometry" />
        </mxCell>
        <mxCell id="GnZBs1aFPUhDdBQKn84E-29" value="" style="verticalLabelPosition=bottom;shadow=0;dashed=0;align=center;html=1;verticalAlign=top;shape=mxgraph.electrical.transistors.pmos;pointerEvents=1;strokeWidth=2;" vertex="1" parent="1">
          <mxGeometry x="720" y="219" width="40" height="70" as="geometry" />
        </mxCell>
        <mxCell id="GnZBs1aFPUhDdBQKn84E-30" value="" style="verticalLabelPosition=bottom;shadow=0;dashed=0;align=center;html=1;verticalAlign=top;shape=mxgraph.electrical.transistors.pmos;pointerEvents=1;strokeWidth=2;" vertex="1" parent="1">
          <mxGeometry x="720" y="269" width="40" height="70" as="geometry" />
        </mxCell>
        <mxCell id="GnZBs1aFPUhDdBQKn84E-31" value="" style="endArrow=none;html=1;rounded=0;exitDx=0;exitDy=0;exitPerimeter=0;strokeWidth=2;" edge="1" parent="1" source="GnZBs1aFPUhDdBQKn84E-34">
          <mxGeometry width="50" height="50" relative="1" as="geometry">
            <mxPoint x="710" y="380" as="sourcePoint" />
            <mxPoint x="760" y="330" as="targetPoint" />
          </mxGeometry>
        </mxCell>
        <mxCell id="GnZBs1aFPUhDdBQKn84E-32" value="" style="endArrow=none;html=1;rounded=0;strokeWidth=2;" edge="1" parent="1">
          <mxGeometry width="50" height="50" relative="1" as="geometry">
            <mxPoint x="720" y="330" as="sourcePoint" />
            <mxPoint x="720" y="204" as="targetPoint" />
          </mxGeometry>
        </mxCell>
        <mxCell id="GnZBs1aFPUhDdBQKn84E-33" value="" style="endArrow=none;html=1;rounded=0;entryX=0.994;entryY=0.912;entryDx=0;entryDy=0;entryPerimeter=0;strokeWidth=2;" edge="1" parent="1" target="GnZBs1aFPUhDdBQKn84E-30">
          <mxGeometry width="50" height="50" relative="1" as="geometry">
            <mxPoint x="720" y="330" as="sourcePoint" />
            <mxPoint x="770" y="300" as="targetPoint" />
            <Array as="points" />
          </mxGeometry>
        </mxCell>
        <mxCell id="GnZBs1aFPUhDdBQKn84E-35" value="" style="endArrow=none;html=1;rounded=0;exitX=1;exitY=0;exitDx=0;exitDy=0;exitPerimeter=0;strokeWidth=2;" edge="1" parent="1" source="GnZBs1aFPUhDdBQKn84E-23" target="GnZBs1aFPUhDdBQKn84E-34">
          <mxGeometry width="50" height="50" relative="1" as="geometry">
            <mxPoint x="760" y="363" as="sourcePoint" />
            <mxPoint x="760" y="320" as="targetPoint" />
          </mxGeometry>
        </mxCell>
        <mxCell id="GnZBs1aFPUhDdBQKn84E-34" value="" style="shape=waypoint;sketch=0;fillStyle=solid;size=6;pointerEvents=1;points=[];fillColor=none;resizable=0;rotatable=0;perimeter=centerPerimeter;snapToPoint=1;strokeWidth=2;" vertex="1" parent="1">
          <mxGeometry x="750" y="319" width="20" height="20" as="geometry" />
        </mxCell>
        <mxCell id="GnZBs1aFPUhDdBQKn84E-36" value="" style="shape=waypoint;sketch=0;fillStyle=solid;size=6;pointerEvents=1;points=[];fillColor=none;resizable=0;rotatable=0;perimeter=centerPerimeter;snapToPoint=1;strokeWidth=2;" vertex="1" parent="1">
          <mxGeometry x="710" y="294" width="20" height="20" as="geometry" />
        </mxCell>
        <mxCell id="GnZBs1aFPUhDdBQKn84E-37" value="" style="shape=waypoint;sketch=0;fillStyle=solid;size=6;pointerEvents=1;points=[];fillColor=none;resizable=0;rotatable=0;perimeter=centerPerimeter;snapToPoint=1;strokeWidth=2;" vertex="1" parent="1">
          <mxGeometry x="710" y="244" width="20" height="20" as="geometry" />
        </mxCell>
        <mxCell id="GnZBs1aFPUhDdBQKn84E-38" value="" style="endArrow=none;html=1;rounded=0;strokeWidth=2;" edge="1" parent="1" source="GnZBs1aFPUhDdBQKn84E-39">
          <mxGeometry width="50" height="50" relative="1" as="geometry">
            <mxPoint x="540" y="279" as="sourcePoint" />
            <mxPoint x="720" y="279" as="targetPoint" />
          </mxGeometry>
        </mxCell>
        <mxCell id="GnZBs1aFPUhDdBQKn84E-40" value="" style="endArrow=none;html=1;rounded=0;strokeWidth=2;" edge="1" parent="1">
          <mxGeometry width="50" height="50" relative="1" as="geometry">
            <mxPoint x="760" y="172" as="sourcePoint" />
            <mxPoint x="760" y="80" as="targetPoint" />
          </mxGeometry>
        </mxCell>
        <mxCell id="GnZBs1aFPUhDdBQKn84E-41" value="" style="verticalLabelPosition=bottom;shadow=0;dashed=0;align=center;html=1;verticalAlign=top;shape=stencil(pVXbcoMgFPwaHpsRyEUfU9u+9huIIZUJgoMkaf++R9E2qGGMzjjOnD26uy4cRDStclZyRCJWlTyziL4hQq7MCHaQABPo5A5MIlcqVnCHfJbcMCu0YhLwfVHCHbuHKmv0md/E0bZvC5VzI6zr3lrGuC7pO4r2ANYXTTOtFPgA0srr3PWBmwllPStCvThqsCQKbrlxeOv526t+2mqFtxuHIPLxnBoirzP0YjpPT1/sBDXcU5unBTCsncRTPm+1xaQfKV6iSmaqxsm4Kk0BebSlaHpg2fnL6Is6jnotWb17B42uXegr/7e18S2FUugIpFB3BG4a/hjWweUbp/A9JJNMZFJXPLBggA9yaNAH4dH0pA0PpHoSUrrjIaD6VPT+mOHFwU1jCHnYLfYwjcH3EC/OAa8XBxEvDqJnYk4S2D8Ld2SGix5FHD7Xxsak6z3c7c1rg3FpUPdbboBf);strokeWidth=2;points=[[0,0.165,0,0,0],[0,0.835,0,0,0],[1,0.5,0,0,0]];" vertex="1" parent="1">
          <mxGeometry x="312" y="115" width="98" height="90" as="geometry" />
        </mxCell>
        <mxCell id="GnZBs1aFPUhDdBQKn84E-42" value="" style="endArrow=none;html=1;rounded=0;strokeWidth=2;" edge="1" parent="1">
          <mxGeometry width="50" height="50" relative="1" as="geometry">
            <mxPoint x="540" y="279" as="sourcePoint" />
            <mxPoint x="840" y="280" as="targetPoint" />
          </mxGeometry>
        </mxCell>
        <mxCell id="GnZBs1aFPUhDdBQKn84E-39" value="" style="shape=waypoint;sketch=0;fillStyle=solid;size=6;pointerEvents=1;points=[];fillColor=none;resizable=0;rotatable=0;perimeter=centerPerimeter;snapToPoint=1;strokeWidth=2;" vertex="1" parent="1">
          <mxGeometry x="710" y="269" width="20" height="20" as="geometry" />
        </mxCell>
        <mxCell id="GnZBs1aFPUhDdBQKn84E-43" value="" style="verticalLabelPosition=bottom;shadow=0;dashed=0;align=center;html=1;verticalAlign=top;shape=mxgraph.electrical.transistors.pmos;pointerEvents=1;strokeWidth=2;" vertex="1" parent="1">
          <mxGeometry x="810" y="110" width="60" height="100" as="geometry" />
        </mxCell>
        <mxCell id="GnZBs1aFPUhDdBQKn84E-44" value="" style="verticalLabelPosition=bottom;shadow=0;dashed=0;align=center;html=1;verticalAlign=top;shape=mxgraph.electrical.transistors.pmos;pointerEvents=1;strokeWidth=2;" vertex="1" parent="1">
          <mxGeometry x="810" y="230" width="60" height="100" as="geometry" />
        </mxCell>
        <mxCell id="GnZBs1aFPUhDdBQKn84E-45" value="" style="endArrow=none;html=1;rounded=0;exitX=1;exitY=0;exitDx=0;exitDy=0;exitPerimeter=0;entryX=1;entryY=1;entryDx=0;entryDy=0;entryPerimeter=0;strokeWidth=2;" edge="1" parent="1" target="GnZBs1aFPUhDdBQKn84E-43">
          <mxGeometry width="50" height="50" relative="1" as="geometry">
            <mxPoint x="870" y="235" as="sourcePoint" />
            <mxPoint x="870" y="210" as="targetPoint" />
          </mxGeometry>
        </mxCell>
        <mxCell id="GnZBs1aFPUhDdBQKn84E-46" value="" style="endArrow=blockThin;html=1;rounded=0;exitX=1;exitY=0;exitDx=0;exitDy=0;exitPerimeter=0;entryX=1;entryY=1;entryDx=0;entryDy=0;entryPerimeter=0;endFill=1;strokeWidth=2;" edge="1" parent="1">
          <mxGeometry width="50" height="50" relative="1" as="geometry">
            <mxPoint x="870" y="322" as="sourcePoint" />
            <mxPoint x="870" y="350" as="targetPoint" />
          </mxGeometry>
        </mxCell>
        <mxCell id="GnZBs1aFPUhDdBQKn84E-47" value="" style="endArrow=none;html=1;rounded=0;strokeWidth=4;" edge="1" parent="1">
          <mxGeometry width="50" height="50" relative="1" as="geometry">
            <mxPoint x="250" y="80" as="sourcePoint" />
            <mxPoint x="920" y="80" as="targetPoint" />
          </mxGeometry>
        </mxCell>
        <mxCell id="GnZBs1aFPUhDdBQKn84E-48" value="" style="endArrow=none;html=1;rounded=0;strokeWidth=4;" edge="1" parent="1">
          <mxGeometry width="50" height="50" relative="1" as="geometry">
            <mxPoint x="250" y="480" as="sourcePoint" />
            <mxPoint x="920" y="480" as="targetPoint" />
          </mxGeometry>
        </mxCell>
        <mxCell id="GnZBs1aFPUhDdBQKn84E-49" value="" style="endArrow=none;html=1;rounded=0;strokeWidth=2;" edge="1" parent="1">
          <mxGeometry width="50" height="50" relative="1" as="geometry">
            <mxPoint x="870" y="123" as="sourcePoint" />
            <mxPoint x="869.81" y="80" as="targetPoint" />
          </mxGeometry>
        </mxCell>
        <mxCell id="GnZBs1aFPUhDdBQKn84E-50" value="" style="endArrow=none;html=1;rounded=0;strokeWidth=2;" edge="1" parent="1">
          <mxGeometry width="50" height="50" relative="1" as="geometry">
            <mxPoint x="480" y="480" as="sourcePoint" />
            <mxPoint x="480" y="470" as="targetPoint" />
          </mxGeometry>
        </mxCell>
        <mxCell id="GnZBs1aFPUhDdBQKn84E-51" value="" style="endArrow=none;html=1;rounded=0;strokeWidth=2;fillColor=#f8cecc;strokeColor=#b85450;" edge="1" parent="1">
          <mxGeometry width="50" height="50" relative="1" as="geometry">
            <mxPoint x="640" y="480" as="sourcePoint" />
            <mxPoint x="640" y="450" as="targetPoint" />
          </mxGeometry>
        </mxCell>
        <mxCell id="GnZBs1aFPUhDdBQKn84E-52" value="" style="endArrow=none;html=1;rounded=0;strokeWidth=2;" edge="1" parent="1">
          <mxGeometry width="50" height="50" relative="1" as="geometry">
            <mxPoint x="760" y="480" as="sourcePoint" />
            <mxPoint x="760" y="450" as="targetPoint" />
          </mxGeometry>
        </mxCell>
        <mxCell id="GnZBs1aFPUhDdBQKn84E-53" value="&lt;font style=&quot;font-size: 16px;&quot;&gt;pbias&lt;/font&gt;" style="text;html=1;align=center;verticalAlign=middle;whiteSpace=wrap;rounded=0;" vertex="1" parent="1">
          <mxGeometry x="540" y="130" width="60" height="30" as="geometry" />
        </mxCell>
        <mxCell id="GnZBs1aFPUhDdBQKn84E-54" value="&lt;font style=&quot;font-size: 16px;&quot;&gt;pcas&lt;/font&gt;" style="text;html=1;align=center;verticalAlign=middle;whiteSpace=wrap;rounded=0;" vertex="1" parent="1">
          <mxGeometry x="540" y="244" width="60" height="30" as="geometry" />
        </mxCell>
        <mxCell id="GnZBs1aFPUhDdBQKn84E-55" value="&lt;b&gt;&lt;font style=&quot;font-size: 16px;&quot;&gt;vref&lt;/font&gt;&lt;/b&gt;" style="text;html=1;align=center;verticalAlign=middle;whiteSpace=wrap;rounded=0;" vertex="1" parent="1">
          <mxGeometry x="240" y="100" width="60" height="30" as="geometry" />
        </mxCell>
        <mxCell id="GnZBs1aFPUhDdBQKn84E-56" value="&lt;font style=&quot;font-size: 15px;&quot;&gt;vfb&lt;/font&gt;" style="text;html=1;align=center;verticalAlign=middle;whiteSpace=wrap;rounded=0;" vertex="1" parent="1">
          <mxGeometry x="360" y="330" width="60" height="30" as="geometry" />
        </mxCell>
        <mxCell id="GnZBs1aFPUhDdBQKn84E-57" value="&lt;font style=&quot;font-size: 15px;&quot;&gt;vbn&lt;/font&gt;" style="text;html=1;align=center;verticalAlign=middle;whiteSpace=wrap;rounded=0;" vertex="1" parent="1">
          <mxGeometry x="640" y="314" width="60" height="30" as="geometry" />
        </mxCell>
      </root>
    </mxGraphModel>
  </diagram>
</mxfile>
